<svg width="128" height="128" xmlns="http://www.w3.org/2000/svg">
  <defs>
    <linearGradient id="grad" x1="0%" y1="0%" x2="100%" y2="100%">
      <stop offset="0%" style="stop-color:#667eea;stop-opacity:1" />
      <stop offset="100%" style="stop-color:#764ba2;stop-opacity:1" />
    </linearGradient>
  </defs>
  
  <!-- Background -->
  <rect width="128" height="128" rx="24" fill="url(#grad)"/>
  
  <!-- Bitcoin Symbol (stylized) -->
  <g transform="translate(64, 64)">
    <!-- Vertical lines -->
    <rect x="-3" y="-48" width="6" height="96" fill="#ffffff" rx="3"/>
    
    <!-- B shape -->
    <path d="M -20 -25 L -20 25 L 5 25 C 15 25 20 20 20 10 C 20 5 17 0 12 0 C 17 0 20 -5 20 -10 C 20 -20 15 -25 5 -25 Z" 
          fill="none" stroke="#ffffff" stroke-width="8" stroke-linejoin="round"/>
    
    <path d="M -12 -25 L 5 -25 C 10 -25 12 -22 12 -15 C 12 -8 10 -5 5 -5 L -12 -5 Z" 
          fill="#ffffff"/>
    
    <path d="M -12 5 L 5 5 C 12 5 15 8 15 15 C 15 22 12 25 5 25 L -12 25 Z" 
          fill="#ffffff"/>
  </g>
  
  <!-- Fire emoji effect (dots) -->
  <circle cx="32" cy="32" r="4" fill="#ff6b6b" opacity="0.8"/>
  <circle cx="96" cy="96" r="4" fill="#ff6b6b" opacity="0.8"/>
</svg>



